<svg height="64" preserveAspectRatio="none" viewBox="0 0 64 64" width="64" xmlns="http://www.w3.org/2000/svg"><path d="m12.458008 20.291992h39.083984v39.583008h-39.083984z" fill="#fff"/><path d="m55.7714844 14.652832h-2.8564453v-3.277832c0-1.0454102-.8476563-1.8930664-1.8935547-1.8930664h-9.0634766v-5.3569336c0-1.1044922-.8955078-2-2-2h-15.9160156c-1.1044922 0-2 .8955078-2 2v5.3569336h-9.0629883c-1.0454102 0-1.8930664.8476563-1.8930664 1.8930664v3.277832h-2.8574219c-1.1816406 0-2.1391602.9575195-2.1391602 2.1391602v7.1245117c0 1.1816406.9575195 2.1391602 2.1391602 2.1391602h2.2294922v33.8193359c0 1.1044922.8955078 2 2 2h39.0839844c1.1044922 0 2-.8955078 2-2v-33.8193359h2.2294922c1.1816406 0 2.1396484-.9575195 2.1396484-2.1391602v-7.1245117c0-1.1816406-.9580078-2.1391602-2.1396484-2.1391602zm-29.7294922-8.527832h11.9160156v3.3569336h-11.9160156zm23.5 51.75h-35.0839844v-31.8193359h35.0839844z" fill="#182985"/><path d="m22.125 51.1513672c-1.0043945 0-1.8183594-.8144531-1.8183594-1.8183594v-17.3330078c0-1.0043945.8139648-1.8183594 1.8183594-1.8183594s1.8183594.8139649 1.8183594 1.8183594v17.3330078c0 1.0039063-.8139649 1.8183594-1.8183594 1.8183594z" fill="#e80000"/><path d="m41.875 51.1513672c-1.0039063 0-1.8183594-.8144531-1.8183594-1.8183594v-17.3330078c0-1.0043945.8144531-1.8183594 1.8183594-1.8183594s1.8183594.8139649 1.8183594 1.8183594v17.3330078c0 1.0039063-.8144531 1.8183594-1.8183594 1.8183594z" fill="#e80000"/><path d="m32 51.1513672c-1.0043945 0-1.8183594-.8144531-1.8183594-1.8183594v-17.3330078c0-1.0043945.8139648-1.8183594 1.8183594-1.8183594 1.0039063 0 1.8183594.8139648 1.8183594 1.8183594v17.3330078c0 1.0039063-.8144531 1.8183594-1.8183594 1.8183594z" fill="#e80000"/><g fill="#182985"><path d="m22.125 51.1513672c-1.0043945 0-1.8183594-.8144531-1.8183594-1.8183594v-17.3330078c0-1.0043945.8139648-1.8183594 1.8183594-1.8183594s1.8183594.8139649 1.8183594 1.8183594v17.3330078c0 1.0039063-.8139649 1.8183594-1.8183594 1.8183594z"/><path d="m41.875 51.1513672c-1.0039063 0-1.8183594-.8144531-1.8183594-1.8183594v-17.3330078c0-1.0043945.8144531-1.8183594 1.8183594-1.8183594s1.8183594.8139649 1.8183594 1.8183594v17.3330078c0 1.0039063-.8144531 1.8183594-1.8183594 1.8183594z"/><path d="m32 51.1513672c-1.0043945 0-1.8183594-.8144531-1.8183594-1.8183594v-17.3330078c0-1.0043945.8139648-1.8183594 1.8183594-1.8183594 1.0039063 0 1.8183594.8139648 1.8183594 1.8183594v17.3330078c0 1.0039063-.8144531 1.8183594-1.8183594 1.8183594z"/></g></svg>